<?xml version="1.0" encoding="UTF-8" standalone="no"?>
<!-- Created with Inkscape (http://www.inkscape.org/) -->

<svg
   xmlns:dc="http://purl.org/dc/elements/1.1/"
   xmlns:cc="http://creativecommons.org/ns#"
   xmlns:rdf="http://www.w3.org/1999/02/22-rdf-syntax-ns#"
   xmlns:svg="http://www.w3.org/2000/svg"
   xmlns="http://www.w3.org/2000/svg"
   version="1.1"
   width="669.88312"
   height="381.28125"
   id="svg2"
   xml:space="preserve"><metadata
     id="metadata8"><rdf:RDF><cc:Work
         rdf:about=""><dc:format>image/svg+xml</dc:format><dc:type
           rdf:resource="http://purl.org/dc/dcmitype/StillImage" /><dc:title></dc:title></cc:Work></rdf:RDF></metadata><defs
     id="defs6" /><path
     d="m 537.96706,190.64124 c 0,31.44125 -10.865,60.32875 -29.0525,83.125 -9.6725,12.125 -21.4025,22.5275 -34.68875,30.64625 6.26875,1.37 11.50875,2.34251 13.09875,2.7175 -2.74875,1.90875 -2.93877,7.09967 -5.78127,8.79842 l -21.89127,11.03816 c -14.9475,5.8225 -37.74121,-3.05033 -54.74746,-3.05033 -17.94125,0 -35.06375,-3.56124 -50.6775,-10.01625 -21.5675,-8.89125 -40.2925,-23.31124 -54.3975,-41.4925 -17.5425,-22.57375 -27.9875,-50.945 -27.9875,-81.76625 0,-2.33125 0.0588,-4.6625 0.1875,-6.95875 1.21625,-23.75625 8.6425,-45.8625 20.69,-64.73375 17.73,-27.78624 45.48375,-48.55624 78.15,-57.17749 10.86625,-2.87 22.26875,-4.405 34.035,-4.405 11.4975,0 22.655,1.46375 33.28625,4.205 33.53125,8.645 61.94,30.06 79.7525,58.74874 11.83625,19.02375 19.00625,41.24625 19.90625,65.07375 0.0825,1.73375 0.1175,3.49 0.1175,5.2475 M 404.90456,0 C 299.78331,0 214.56831,85.35125 214.56831,190.64124 c 0,105.28875 85.215,190.64 190.33625,190.64 39.0525,0 75.3675,-11.78375 105.5775,-31.99125 16.6775,-11.1525 31.485,-24.87 43.8825,-40.6025 25.59,-32.46 40.87625,-73.46125 40.87625,-118.04625 C 595.24081,85.35125 510.02581,0 404.90456,0"
     id="path6055"
     style="fill:#ffce00;fill-opacity:1;fill-rule:nonzero;stroke:none" /><path
     d="m 486.75126,312.58582 c -6.56125,4.41625 -13.4975,8.3175 -20.74875,11.64375 -18.80625,8.63376 -39.73,13.44876 -61.77625,13.44876 -81.96375,0 -148.4075,-66.5375 -148.4075,-148.64375 0,-82.08375 66.44375,-148.645005 148.4075,-148.645005 81.9525,0 148.40625,66.561255 148.40625,148.645005 0,51.50749 -26.15125,96.88999 -65.88125,123.55124 m -82.525,-287.869995 c -90.6075,0 -164.05625,73.56625 -164.05625,164.318745 0,90.75125 73.44875,164.31751 164.05625,164.31751 27.83625,0 54.0575,-6.94626 77.01625,-19.2 10.655,-5.68125 20.6075,-12.51126 29.7075,-20.325 35.09875,-30.12876 57.3325,-74.855 57.3325,-124.7925 0,-90.752505 -73.45,-164.318755 -164.05625,-164.318755"
     id="path6059"
     style="fill:#e5b900;fill-opacity:1;fill-rule:nonzero;stroke:none" /><path
     d="m 552.63692,189.03394 c 0,35.06792 -12.11825,67.28752 -32.40362,92.71325 -10.7882,13.52359 -23.87123,25.12599 -38.69001,34.18122 -11.98274,6.98997 -15.54078,8.30116 -21.89009,11.03916 -0.54791,0.22167 -1.10838,0.44474 -1.66884,0.66641 -16.67165,6.49411 -34.79047,10.04789 -53.75835,10.04789 -20.01072,0 -39.10826,-3.97203 -56.52302,-11.1716 -24.05525,-9.91683 -44.94013,-26.00014 -60.6721,-46.27855 -19.56599,-25.17758 -31.21579,-56.82138 -31.21579,-91.19778 0,-2.60015 0.0655,-5.20031 0.20912,-7.76142 1.35654,-26.49648 9.63939,-51.15263 23.07654,-72.20061 19.77511,-30.991323 50.73019,-54.157085 87.1644,-63.772785 12.11965,-3.201038 24.83739,-4.9131 37.96085,-4.9131 12.8237,0 25.2682,1.632587 37.12574,4.690037 37.39899,9.642175 69.08461,33.527338 88.95174,65.525258 13.20152,21.21809 21.19857,46.0039 22.20238,72.57984 0.092,1.93373 0.13105,3.89256 0.13105,5.85278"
     id="path6063"
     style="fill:#ffce00;fill-opacity:1;fill-rule:nonzero;stroke:none" /><g
     transform="matrix(1.25,0,0,-1.25,431.2578,147.67357)"
     id="g6065"><path
       d="m 0,0 c -0.321,-5.765 -12.483,-21.816 -20.559,-24.06 -13.398,-5.031 -19.125,-7.205 -22.421,-14.945 -0.675,-2.371 -4.203,-3.728 -6.192,-4.945 1.338,-0.517 2.408,-1.548 3.044,-2.963 0.722,2.159 2.839,5.161 5.688,5.377 l 0,0 c 18.691,-5.798 33.553,0.079 39.019,19.561 C 1.158,-11.841 1.632,-4.516 0,0"
       id="path6067"
       style="fill:#b29000;fill-opacity:1;fill-rule:nonzero;stroke:none" /></g><g
     transform="matrix(1.25,0,0,-1.25,409.69642,158.97032)"
     id="g6069"><path
       d="M 0,0 C 6.576,0.712 12.326,3.725 17.249,9.037 16.805,3.28 4.304,-12.497 -3.819,-14.561 c -13.502,-4.732 -19.274,-6.778 -22.735,-14.444 0.083,0.268 0.129,0.55 0.132,0.848 C -25.52,-11.955 -16.712,-2.569 0,0"
       id="path6071"
       style="fill:#b29000;fill-opacity:1;fill-rule:nonzero;stroke:none" /></g><g
     transform="matrix(1.25,0,0,-1.25,410.88955,214.26569)"
     id="g6073"><path
       d="M 0,0 18.232,0"
       id="path6075"
       style="fill:none;stroke:#b29000;stroke-width:4.11999989;stroke-linecap:round;stroke-linejoin:bevel;stroke-miterlimit:4;stroke-opacity:1;stroke-dasharray:none" /></g><g
     transform="matrix(1.25,0,0,-1.25,424.25355,202.29907)"
     id="g6077"><path
       d="M 0,0 -3.151,-19.147"
       id="path6079"
       style="fill:none;stroke:#b29000;stroke-width:4.05800009;stroke-linecap:round;stroke-linejoin:bevel;stroke-miterlimit:4;stroke-opacity:1;stroke-dasharray:none" /></g><g
     transform="matrix(1.25,0,0,-1.25,436.76505,70.615075)"
     id="g6081"><path
       d="m 0,0 -2.957,-8.744 c -7.354,1.987 -15.092,3.037 -23.073,3.037 -8.168,0 -16.075,-1.106 -23.588,-3.177 L -52.621,0 c -3.388,7.759 1.609,16.55 10.002,17.731 5.324,0.759 10.778,1.143 16.308,1.143 5.539,0 10.994,-0.384 16.318,-1.143 C -1.6,16.55 3.396,7.759 0,0"
       id="path6083"
       style="fill:#ffffff;fill-opacity:1;fill-rule:nonzero;stroke:none" /></g><g
     transform="matrix(1.25,0,0,-1.25,433.06905,81.5447)"
     id="g6085"><path
       d="M 0,0 -0.271,-0.806 -11.948,-35.04 c -0.992,-2.924 -3.733,-4.892 -6.821,-4.892 l -9.179,0 c -3.078,0 -5.82,1.968 -6.821,4.892 l -11.668,34.234 -0.224,0.665 c 7.513,2.072 15.419,3.177 23.588,3.177 C -15.092,3.036 -7.354,1.987 0,0"
       id="path6087"
       style="fill:#282828;fill-opacity:1;fill-rule:nonzero;stroke:none" /></g><g
     transform="matrix(1.25,0,0,-1.25,310.02042,128.14869)"
     id="g6093"><path
       d="M 0,0 0.681,-0.507 29.58,-22.21 c 2.47,-1.848 3.491,-5.067 2.537,-8.009 l -2.836,-8.743 c -0.952,-2.933 -3.667,-4.936 -6.753,-4.986 l -36.113,-0.535 -0.701,-0.009 c 0.356,7.797 1.749,15.67 4.273,23.451 C -7.547,-13.438 -4.159,-6.391 0,0"
       id="path6095"
       style="fill:#282828;fill-opacity:1;fill-rule:nonzero;stroke:none" /></g><g
     transform="matrix(1.25,0,0,-1.25,304.07392,266.28532)"
     id="g6097"><path
       d="m 0,0 7.523,5.333 c 4.784,-5.937 10.428,-11.342 16.885,-16.04 6.608,-4.809 13.654,-8.569 20.947,-11.317 l -2.783,-8.956 c -1.814,-8.271 -11.015,-12.441 -18.498,-8.456 -4.752,2.52 -9.391,5.421 -13.864,8.677 -4.482,3.261 -8.669,6.783 -12.531,10.531 C -8.418,-14.331 -7.301,-4.278 0,0"
       id="path6099"
       style="fill:#ffffff;fill-opacity:1;fill-rule:nonzero;stroke:none" /></g><g
     transform="matrix(1.25,0,0,-1.25,313.47817,259.61907)"
     id="g6101"><path
       d="M 0,0 0.692,0.492 30.23,21.314 c 2.518,1.782 5.89,1.76 8.389,-0.058 l 7.425,-5.404 c 2.491,-1.812 3.554,-5.018 2.648,-7.973 L 38.041,-26.686 37.832,-27.357 C 30.538,-24.609 23.493,-20.849 16.885,-16.04 10.428,-11.342 4.784,-5.937 0,0"
       id="path6103"
       style="fill:#282828;fill-opacity:1;fill-rule:nonzero;stroke:none" /></g><g
     transform="matrix(1.25,0,0,-1.25,528.68114,185.2917)"
     id="g6105"><path
       d="m 0,0 -9.216,0.115 c -0.386,7.619 -1.781,15.314 -4.247,22.917 -2.524,7.781 -6.017,14.971 -10.306,21.488 l 7.508,5.606 C -9.94,55.75 -0.049,53.707 3.666,46.077 6.032,41.241 8.083,36.163 9.791,30.896 11.503,25.619 12.824,20.304 13.748,14.998 15.221,6.638 8.417,-0.837 0,0"
       id="path6107"
       style="fill:#ffffff;fill-opacity:1;fill-rule:nonzero;stroke:none" /></g><g
     transform="matrix(1.25,0,0,-1.25,517.16088,185.14832)"
     id="g6109"><path
       d="m 0,0 -0.849,0.009 -36.115,0.545 c -3.083,0.041 -5.799,2.044 -6.753,4.985 l -2.836,8.744 c -0.952,2.932 0.07,6.152 2.537,8.009 l 28.901,21.693 0.563,0.42 C -10.264,37.888 -6.771,30.698 -4.247,22.917 -1.781,15.315 -0.386,7.619 0,0"
       id="path6111"
       style="fill:#282828;fill-opacity:1;fill-rule:nonzero;stroke:none" /></g><g
     transform="matrix(1.25,0,0,-1.25,504.80939,290.56294)"
     id="g6113"><path
       d="m 0,0 c -3.855,-3.749 -8.047,-7.273 -12.519,-10.533 -0.665,-0.488 -1.338,-0.966 -2.012,-1.434 -1.272,0.299 -5.464,1.077 -10.479,2.174 -8.421,1.846 -19.162,4.611 -22.381,7.619 -0.084,0.084 -0.159,0.159 -0.234,0.234 7.12,2.727 13.997,6.429 20.453,11.134 6.606,4.807 12.351,10.355 17.217,16.456 l 7.644,-5.417 C 0.009,18.874 1.703,16.925 2.741,14.723 4.968,9.981 4.164,4.02 0,0"
       id="path6115"
       style="fill:#ffffff;fill-opacity:1;fill-rule:nonzero;stroke:none" /></g><g
     transform="matrix(1.25,0,0,-1.25,445.28351,292.98307)"
     id="g6117"><path
       d="m 0,0 -0.254,0.812 -10.643,34.571 c -0.913,2.949 0.15,6.155 2.648,7.973 l 7.425,5.403 c 2.491,1.813 5.864,1.835 8.389,0.059 L 37.095,27.99 37.667,27.584 C 32.804,21.485 27.057,15.936 20.449,11.127 13.992,6.429 7.116,2.722 0,0"
       id="path6119"
       style="fill:#282828;fill-opacity:1;fill-rule:nonzero;stroke:none" /></g><g
     transform="matrix(1.25,0,0,-1.25,473.54664,302.80469)"
     id="g6121"><path
       d="m 0,0 c -8.421,1.846 -19.162,4.611 -22.381,7.619 -0.084,0.085 -0.159,0.16 -0.234,0.235 l 2.742,-8.81 c 0.626,-2.867 2.142,-5.248 4.173,-6.963 3.808,-3.223 9.431,-4.104 14.315,-1.499 0.141,0.075 0.272,0.15 0.412,0.215 1.59,0.853 3.172,1.762 4.744,2.69 2.273,1.359 4.509,2.812 6.708,4.339 C 9.207,-1.874 5.015,-1.096 0,0"
       id="path6123"
       style="fill:#282828;fill-opacity:1;fill-rule:nonzero;stroke:none" /></g><g
     transform="matrix(1.25,0,0,-1.25,665.43437,290.63557)"
     id="g6125"><path
       d="m 0,0 3.559,-41.22 c 0,-3.419 -2.446,-6.346 -5.806,-6.949 l -59.69,-10.701 c -20.65,-3.88 -41.09277,4.908217 -61.16277,12.527217 13.343,8.922 25.174306,20.402403 35.092306,32.987403 10.33,2.812 18.148464,7.64538 26.241464,10.23238 L -8.29,6.949 C -3.969,7.724 0,4.397 0,0"
       id="path6127"
       style="fill:#282828;fill-opacity:1;fill-rule:nonzero;stroke:none" /></g><g
     transform="matrix(1.25,0,0,-1.25,653.13475,293.55032)"
     id="g6129"><path
       d="M 0,0 2.756,0.489 C 3.143,0.558 3.401,0.925 3.332,1.31 L 2.833,4.091 C 2.764,4.476 2.395,4.732 2.008,4.664 L -0.748,4.174 C -1.135,4.106 -1.393,3.738 -1.324,3.353 l 0.499,-2.78 C -0.756,0.188 -0.387,-0.069 0,0"
       id="path6131"
       style="fill:#ffffff;fill-opacity:1;fill-rule:nonzero;stroke:none" /></g><g
     transform="matrix(1.25,0,0,-1.25,641.29287,295.81994)"
     id="g6133"><path
       d="M 0,0 2.756,0.489 C 3.143,0.558 3.401,0.925 3.332,1.31 L 2.833,4.091 C 2.764,4.476 2.395,4.732 2.008,4.664 L -0.749,4.174 C -1.135,4.106 -1.393,3.738 -1.324,3.353 l 0.499,-2.78 C -0.756,0.188 -0.387,-0.069 0,0"
       id="path6135"
       style="fill:#ffffff;fill-opacity:1;fill-rule:nonzero;stroke:none" /></g><g
     transform="matrix(1.25,0,0,-1.25,627.7175,298.35807)"
     id="g6137"><path
       d="M 0,0 2.756,0.489 C 3.143,0.558 3.401,0.925 3.332,1.31 L 2.833,4.091 C 2.764,4.476 2.395,4.732 2.008,4.664 L -0.749,4.174 C -1.135,4.106 -1.393,3.738 -1.324,3.353 l 0.499,-2.78 C -0.756,0.188 -0.387,-0.069 0,0"
       id="path6139"
       style="fill:#ffffff;fill-opacity:1;fill-rule:nonzero;stroke:none" /></g><g
     transform="matrix(1.25,0,0,-1.25,615.65625,300.40819)"
     id="g6141"><path
       d="M 0,0 2.756,0.489 C 3.143,0.558 3.401,0.925 3.332,1.31 L 2.833,4.091 C 2.764,4.476 2.395,4.732 2.008,4.664 L -0.748,4.174 C -1.135,4.106 -1.393,3.738 -1.324,3.353 l 0.499,-2.78 C -0.756,0.188 -0.387,-0.069 0,0"
       id="path6143"
       style="fill:#ffffff;fill-opacity:1;fill-rule:nonzero;stroke:none" /></g><g
     transform="matrix(1.25,0,0,-1.25,602.59613,302.65344)"
     id="g6145"><path
       d="M 0,0 2.756,0.489 C 3.143,0.558 3.401,0.925 3.332,1.31 L 2.833,4.091 C 2.764,4.476 2.395,4.732 2.008,4.664 L -0.749,4.174 C -1.135,4.106 -1.393,3.738 -1.324,3.353 l 0.498,-2.78 C -0.756,0.188 -0.387,-0.069 0,0"
       id="path6147"
       style="fill:#ffffff;fill-opacity:1;fill-rule:nonzero;stroke:none" /></g><g
     transform="matrix(1.25,0,0,-1.25,589.25476,305.52694)"
     id="g6149"><path
       d="M 0,0 2.703,0.728 C 3.083,0.83 3.312,1.201 3.216,1.555 L 2.522,4.118 C 2.426,4.473 2.04,4.678 1.661,4.576 L -1.043,3.847 C -1.422,3.745 -1.652,3.375 -1.556,3.02 L -0.861,0.457 C -0.765,0.103 -0.379,-0.102 0,0"
       id="path6151"
       style="fill:#ffffff;fill-opacity:1;fill-rule:nonzero;stroke:none" /></g><g
     transform="matrix(1.25,0,0,-1.25,574.80363,309.87632)"
     id="g6153"><path
       d="M 0,0 2.646,0.915 C 3.017,1.044 3.227,1.411 3.114,1.736 L 2.298,4.084 C 2.185,4.409 1.793,4.568 1.421,4.44 L -1.225,3.524 C -1.596,3.396 -1.806,3.028 -1.693,2.703 L -0.877,0.356 C -0.764,0.031 -0.371,-0.128 0,0"
       id="path6155"
       style="fill:#ffffff;fill-opacity:1;fill-rule:nonzero;stroke:none" /></g><g
     transform="matrix(1.25,0,0,-1.25,560.01539,314.37357)"
     id="g6157"><path
       d="M 0,0 2.676,0.824 C 3.051,0.94 3.281,1.274 3.189,1.571 L 2.525,3.716 C 2.433,4.012 2.054,4.159 1.678,4.044 L -0.997,3.219 C -1.373,3.104 -1.603,2.769 -1.511,2.472 L -0.846,0.328 C -0.755,0.031 -0.375,-0.116 0,0"
       id="path6159"
       style="fill:#ffffff;fill-opacity:1;fill-rule:nonzero;stroke:none" /></g><g
     transform="matrix(1.25,0,0,-1.25,470.33413,307.6657)"
     id="g6161"><path
       d="m 0,0 2.13,-0.405 c 0.299,-0.057 0.577,0.089 0.621,0.326 L 3.071,1.63 C 3.115,1.866 2.908,2.104 2.609,2.161 L 0.48,2.566 C 0.181,2.622 -0.097,2.477 -0.142,2.24 L -0.461,0.531 C -0.505,0.295 -0.299,0.057 0,0"
       id="path6163"
       style="fill:#ffffff;fill-opacity:1;fill-rule:nonzero;stroke:none" /></g><g
     transform="matrix(1.25,0,0,-1.25,457.32001,304.11682)"
     id="g6165"><path
       d="m 0,0 2.076,-0.626 c 0.291,-0.087 0.583,0.028 0.652,0.259 L 3.224,1.299 C 3.292,1.53 3.112,1.788 2.821,1.876 L 0.745,2.501 C 0.453,2.589 0.162,2.473 0.093,2.243 L -0.403,0.577 C -0.472,0.346 -0.291,0.088 0,0"
       id="path6167"
       style="fill:#ffffff;fill-opacity:1;fill-rule:nonzero;stroke:none" /></g><g
     transform="matrix(1.25,0,0,-1.25,657.41775,344.40069)"
     id="g6169"><path
       d="M 0,0 2.756,0.489 C 3.143,0.558 3.401,0.925 3.332,1.31 L 2.833,4.091 C 2.764,4.476 2.395,4.732 2.008,4.664 L -0.749,4.174 C -1.135,4.106 -1.393,3.738 -1.324,3.353 l 0.499,-2.78 C -0.756,0.188 -0.387,-0.069 0,0"
       id="path6171"
       style="fill:#ffffff;fill-opacity:1;fill-rule:nonzero;stroke:none" /></g><g
     transform="matrix(1.25,0,0,-1.25,644.46937,347.03644)"
     id="g6173"><path
       d="M 0,0 2.756,0.489 C 3.143,0.558 3.401,0.925 3.332,1.31 L 2.833,4.091 C 2.764,4.476 2.395,4.732 2.008,4.664 L -0.749,4.174 C -1.135,4.106 -1.393,3.738 -1.324,3.353 l 0.498,-2.78 C -0.756,0.188 -0.387,-0.069 0,0"
       id="path6175"
       style="fill:#ffffff;fill-opacity:1;fill-rule:nonzero;stroke:none" /></g><g
     transform="matrix(1.25,0,0,-1.25,631.43812,349.38032)"
     id="g6177"><path
       d="M 0,0 2.756,0.489 C 3.143,0.558 3.401,0.925 3.332,1.31 L 2.833,4.091 C 2.764,4.476 2.395,4.732 2.008,4.664 L -0.748,4.174 C -1.135,4.106 -1.393,3.738 -1.324,3.353 l 0.499,-2.78 C -0.756,0.188 -0.387,-0.069 0,0"
       id="path6179"
       style="fill:#ffffff;fill-opacity:1;fill-rule:nonzero;stroke:none" /></g><g
     transform="matrix(1.25,0,0,-1.25,618.23362,351.50257)"
     id="g6181"><path
       d="M 0,0 2.756,0.489 C 3.143,0.558 3.401,0.925 3.332,1.31 L 2.833,4.091 C 2.764,4.476 2.395,4.732 2.008,4.664 L -0.749,4.174 C -1.135,4.106 -1.393,3.738 -1.324,3.353 l 0.499,-2.78 C -0.756,0.188 -0.387,-0.069 0,0"
       id="path6183"
       style="fill:#ffffff;fill-opacity:1;fill-rule:nonzero;stroke:none" /></g><g
     transform="matrix(1.25,0,0,-1.25,605.17325,353.74782)"
     id="g6185"><path
       d="M 0,0 2.756,0.489 C 3.143,0.558 3.401,0.925 3.332,1.31 L 2.833,4.091 C 2.764,4.476 2.395,4.732 2.008,4.664 L -0.749,4.174 C -1.135,4.106 -1.393,3.738 -1.324,3.353 l 0.499,-2.78 C -0.756,0.188 -0.387,-0.069 0,0"
       id="path6187"
       style="fill:#ffffff;fill-opacity:1;fill-rule:nonzero;stroke:none" /></g><g
     transform="matrix(1.25,0,0,-1.25,592.81963,356.01757)"
     id="g6189"><path
       d="M 0,0 2.756,0.489 C 3.143,0.558 3.401,0.925 3.332,1.31 L 2.833,4.091 C 2.764,4.476 2.395,4.732 2.008,4.664 L -0.748,4.174 C -1.135,4.106 -1.393,3.738 -1.324,3.353 l 0.499,-2.78 C -0.756,0.188 -0.387,-0.069 0,0"
       id="path6191"
       style="fill:#ffffff;fill-opacity:1;fill-rule:nonzero;stroke:none" /></g><g
     transform="matrix(1.25,0,0,-1.25,578.68951,358.82944)"
     id="g6193"><path
       d="m 0,0 2.788,0.254 c 0.391,0.036 0.679,0.38 0.643,0.77 L 3.168,3.836 C 3.132,4.226 2.785,4.513 2.394,4.477 L -0.394,4.223 C -0.785,4.187 -1.073,3.843 -1.036,3.453 L -0.774,0.64 C -0.738,0.251 -0.391,-0.036 0,0"
       id="path6195"
       style="fill:#ffffff;fill-opacity:1;fill-rule:nonzero;stroke:none" /></g><g
     transform="matrix(1.25,0,0,-1.25,564.12076,358.53532)"
     id="g6197"><path
       d="m 0,0 2.79,-0.223 c 0.392,-0.031 0.731,0.22 0.757,0.562 L 3.738,2.805 C 3.764,3.146 3.468,3.448 3.076,3.479 L 0.286,3.702 C -0.106,3.733 -0.445,3.482 -0.471,3.14 L -0.661,0.675 C -0.688,0.333 -0.392,0.031 0,0"
       id="path6199"
       style="fill:#ffffff;fill-opacity:1;fill-rule:nonzero;stroke:none" /></g><g
     transform="matrix(1.25,0,0,-1.25,550.53976,355.80982)"
     id="g6201"><path
       d="m 0,0 2.707,-0.714 c 0.38,-0.1 0.753,0.069 0.833,0.377 l 0.581,2.229 c 0.08,0.309 -0.163,0.64 -0.543,0.74 L 0.871,3.346 C 0.491,3.447 0.118,3.278 0.038,2.969 L -0.543,0.74 C -0.623,0.432 -0.38,0.1 0,0"
       id="path6203"
       style="fill:#ffffff;fill-opacity:1;fill-rule:nonzero;stroke:none" /></g><g
     transform="matrix(1.25,0,0,-1.25,537.23588,352.00294)"
     id="g6205"><path
       d="m 0,0 2.707,-0.714 c 0.38,-0.1 0.748,0.048 0.821,0.332 L 4.061,1.664 C 4.135,1.948 3.886,2.259 3.506,2.359 L 0.799,3.072 C 0.42,3.173 0.052,3.024 -0.022,2.741 L -0.555,0.694 C -0.628,0.411 -0.38,0.1 0,0"
       id="path6207"
       style="fill:#ffffff;fill-opacity:1;fill-rule:nonzero;stroke:none" /></g><g
     transform="matrix(1.25,0,0,-1.25,523.47213,347.00219)"
     id="g6209"><path
       d="m 0,0 2.6,-1.038 c 0.365,-0.146 0.73,-0.089 0.815,0.127 L 4.031,0.648 C 4.117,0.864 3.89,1.157 3.525,1.303 l -2.6,1.038 C 0.56,2.487 0.195,2.43 0.11,2.214 L -0.506,0.655 C -0.592,0.439 -0.365,0.146 0,0"
       id="path6211"
       style="fill:#ffffff;fill-opacity:1;fill-rule:nonzero;stroke:none" /></g><g
     transform="matrix(1.25,0,0,-1.25,611.43925,341.76382)"
     id="g6213"><path
       d="m 0,0 33.297,5.369 c 1.795,0.29 3.016,1.979 2.728,3.775 l -3.572,22.22 c -0.289,1.796 -1.98,3.018 -3.776,2.729 L -4.62,28.723 C -6.416,28.434 -7.636,26.744 -7.348,24.949 L -3.776,2.729 C -3.487,0.932 -1.797,-0.29 0,0"
       id="path6215"
       style="fill:#131414;fill-opacity:1;fill-rule:nonzero;stroke:none" /></g><g
     transform="matrix(1.25,0,0,-1.25,538.13401,343.67594)"
     id="g6217"><path
       d="m 0,0 c 17.338,-7.778 34.981,-5.217 43.125,-2.07 1.588,0.614 2.886,1.756 2.674,3.447 L 42.953,24.12 c -0.212,1.691 -2.443,3.115 -3.442,2.678 -8.657,-3.785 -19.778,-8.516 -26.292,-5.967 -1.015,0.397 -2.811,-0.08 -4.051,-1.54 L -3.441,2.679 C -3.745,1.706 -1.553,0.697 0,0"
       id="path6219"
       style="fill:#131414;fill-opacity:1;fill-rule:nonzero;stroke:none" /></g><path
     d="m 300.77421,121.30051 9.25284,6.8929 c -5.20283,7.97506 -9.44005,16.76857 -12.52288,26.25653 -3.15506,9.71029 -4.89447,19.53752 -5.33448,29.26909 l -11.72145,0.1384 c -10.53275,1.03064 -19.05348,-8.30561 -17.2155,-18.73956 1.1542,-6.62246 2.80441,-13.25462 4.94048,-19.8288 2.13957,-6.58487 4.70318,-12.92155 7.662,-18.95765 4.64597,-9.52159 17.0267,-12.06522 24.93899,-5.03091"
     id="path6083-6"
     style="fill:#ffffff;fill-opacity:1;fill-rule:nonzero;stroke:none" /><g
     transform="matrix(1.25,0,0,-1.25,-663.44085,1055.7993)"
     id="g8819"><g
       transform="translate(772.531,747.6398)"
       id="g6089"><path
         d="M 0,0 7.389,-5.519 C 3.23,-11.91 -0.158,-18.957 -2.624,-26.559 -5.148,-34.34 -6.542,-42.213 -6.897,-50.01 l -9.364,-0.116 c -8.414,-0.829 -15.218,6.647 -13.745,15.007 0.924,5.306 2.245,10.621 3.954,15.888 1.711,5.277 3.762,10.354 6.128,15.191 C -16.209,3.59 -6.318,5.633 0,0"
         id="path6091"
         style="fill:#ffffff;fill-opacity:1;fill-rule:nonzero;stroke:none" /></g><g
       transform="translate(778.0896,732.9285)"
       id="g6221"><path
         d="m 0,0 c 0,-8.072 -1.339,-15.839 -3.805,-23.089 -0.055,0.462 -0.129,0.923 -0.231,1.376 -6.955,-5.735 -15.858,-10.75 -26.22,-14.768 -7.001,-2.715 -14.657,-4.987 -22.821,-6.723 -9.31,-1.977 -19.285,-3.27 -29.702,-3.74 -3.039,-0.148 -6.123,-0.222 -9.236,-0.222 -3.112,0 -6.197,0.074 -9.236,0.222 -10.417,0.47 -20.392,1.763 -29.702,3.74 -3.731,0.794 -7.351,1.699 -10.851,2.706 l -0.01,0.009 c -0.415,0.268 -0.905,0.434 -1.496,0.434 l -0.009,0 c -3.63,1.081 -7.112,2.281 -10.455,3.574 -10.362,4.018 -19.265,9.033 -26.22,14.768 -0.018,-0.083 -0.028,-0.157 -0.046,-0.24 -7.518,8.903 -12.2,20.217 -12.2,31.9 0,25.906 21.002,46.908 46.908,46.908 7.859,0 15.146,-2.115 21.648,-5.523 1.321,1.302 2.891,2.337 4.313,3.528 -0.028,0.674 -0.194,1.312 -0.194,1.995 0,25.906 20.993,46.899 46.899,46.899 25.906,0 46.908,-20.993 46.908,-46.899 0,-0.683 -0.176,-1.321 -0.204,-1.995 C -10.215,41.625 0,22.101 0,0"
         id="path6223"
         style="fill:#f9ed58;fill-opacity:1;fill-rule:nonzero;stroke:none" /></g><g
       transform="translate(636.1098,543.5424)"
       id="g6225"><path
         d="m 0,0 c -4.221,2.567 -7.342,6.825 -8.368,11.951 l -29.674,148.398 c -0.489,2.43 -0.462,4.83 -0.018,7.084 0.018,0.083 0.028,0.157 0.046,0.24 6.954,-5.735 15.858,-10.75 26.22,-14.768 l 0.175,-2.309 L 0,0 z"
         id="path6227"
         style="fill:#e50000;fill-opacity:1;fill-rule:nonzero;stroke:none" /></g><g
       transform="translate(725.0122,689.7243)"
       id="g6229"><path
         d="m 0,0 -1.367,-26.672 -6.28,-122.152 -62.581,0 -7.121,138.655 L -77.875,0 c 9.309,-1.977 19.284,-3.269 29.702,-3.74 3.038,-0.148 6.123,-0.222 9.235,-0.222 3.113,0 6.197,0.074 9.236,0.222 C -19.284,-3.269 -9.31,-1.977 0,0"
         id="path6231"
         style="fill:#e50000;fill-opacity:1;fill-rule:nonzero;stroke:none" /></g><g
       transform="translate(774.0905,703.8916)"
       id="g6233"><path
         d="m 0,0 -29.683,-148.398 c -1.026,-5.126 -4.147,-9.384 -8.368,-11.951 l 9.993,129.53 1.801,23.375 C -15.895,-3.426 -6.991,1.589 -0.037,7.324 0.065,6.871 0.139,6.409 0.194,5.948 0.453,4.027 0.407,2.023 0,0"
         id="path6235"
         style="fill:#e50000;fill-opacity:1;fill-rule:nonzero;stroke:none" /></g><path
       d="m 695.3102,685.984 0,-145.083 -18.471,0 0,145.083 c 3.038,-0.148 6.123,-0.222 9.235,-0.222 3.113,0 6.197,0.074 9.236,0.222"
       id="path6239"
       style="fill:#ffffff;fill-opacity:1;fill-rule:nonzero;stroke:none" /><g
       transform="translate(654.7842,540.9007)"
       id="g6241"><path
         d="m 0,0 -9.236,0 c -3.435,0 -6.677,0.961 -9.438,2.642 l -11.619,150.596 -0.175,2.309 c 3.343,-1.293 6.825,-2.493 10.454,-3.574 l 0.009,0 c 0.499,-0.148 0.998,-0.296 1.497,-0.434 l 0.009,-0.009 c 3.5,-1.007 7.121,-1.912 10.852,-2.706 L -7.121,138.655 0,0 z"
         id="path6243"
         style="fill:#ffffff;fill-opacity:1;fill-rule:nonzero;stroke:none" /></g><g
       transform="translate(747.8335,696.4476)"
       id="g6245"><path
         d="m 0,0 -1.801,-23.375 -9.993,-129.53 c -2.771,-1.681 -6.003,-2.642 -9.439,-2.642 l -9.235,0 6.28,122.151 1.367,26.673 C -14.657,-4.987 -7.001,-2.715 0,0"
         id="path6247"
         style="fill:#ffffff;fill-opacity:1;fill-rule:nonzero;stroke:none" /></g></g><g
     transform="matrix(-1.25,0,0,-1.25,847.60216,795.45987)"
     id="g8920"><path
       d="m 640.40456,514.27875 c -2.26969,0.0141 -5.175,-1.065 -6.075,-3.45 l -1.3,-4.125 -1.975,-6.225 -9.45,-29.7 6.3,0 9.475,29.8 1.95,6.125 0.55,1.725 3.275,-1.725 7.925,-4.225 21.825,-11.625 c 1.08,-0.57 2.405,-0.17 2.975,0.9 l 0.75,1.425 c 0.57,1.07 0.18,2.405 -0.9,2.975 l -21.7,11.525 -6.85,3.65 -4.8,2.575 c -0.52,0.24 -1.21844,0.37032 -1.975,0.375 z"
       id="path5659"
       style="fill:#ffffff;fill-opacity:1;fill-rule:nonzero;stroke:#08163f;stroke-width:2.4000001;stroke-miterlimit:4;stroke-opacity:1;stroke-dasharray:none" /><path
       d="m 564.52956,365.52874 0.9,-6.05 2.275,-15.575 c 0.58,-3.96 2.335,-7.235 4.725,-9.225 1.18,-0.97 2.515,-1.63 3.925,-1.9 0.47,-0.09 0.96,-0.15 1.45,-0.15 l 45.95,0 c 1.95,0 3.78,0.75 5.35,2.05 2.39,1.99 4.145,5.265 4.725,9.225 l 0.55,3.775 2.625,17.85 -32.3,0 -7.975,0 -10.15,0 -20.85,0 -1.2,0 z"
       id="path5867"
       style="fill:#08163f;fill-opacity:1;fill-rule:nonzero;stroke:none" /><g
       transform="translate(570.06719,449.97715)"
       id="g5981"><path
         d="m 214.25,717.46875 5.34375,36.4375 16.71875,0 14.3125,0 13.75,0 5.75,0 16.375,0 3.625,0 2.5625,0 23.375,0 16.6875,0 4.6875,-32 0.65625,-4.4375 c -0.6125,0.325 -1.30625,0.5 -2.03125,0.5 l -42.375,0 -23.28125,0 -3.28125,0 -14.09375,0 -14.84375,0 -2.6875,0 -19.21875,0 c -0.725,0 -1.41875,-0.175 -2.03125,-0.5 z"
         transform="matrix(0.8,0,0,-0.8,-190.23763,580.1766)"
         id="path5983"
         style="fill:#08163f;fill-opacity:1;fill-rule:nonzero;stroke:none" /></g><g
       transform="translate(567.73719,404.61714)"
       id="g5997"><path
         d="m 222.34375,772.65625 5.78125,39.375 5.21875,0 26.28125,0 c 0.0875,0.075 0.175,0.1625 0.25,0.25 l 0,-0.25 15,0 28.21875,0 21.125,0 0.875,-5.84375 0.65625,-4.46875 1.90625,-13.15625 2.34375,-15.90625 -22.96875,0 -17.15625,0 -5.65625,0 -1.46875,0 -19.8125,0 -0.0312,0.21875 c -0.05,-0.075 -0.125,-0.14375 -0.1875,-0.21875 l -27.34375,0 -6.375,0 -6.65625,0 z m 89.5625,4.3125 c 1.65664,1.40371 3.34219,2.76641 5.0625,4.09375 -1.72031,-1.32656 -3.40586,-2.69062 -5.0625,-4.09375 z"
         transform="matrix(0.8,0,0,-0.8,-187.90763,625.5366)"
         id="path5999"
         style="fill:#08163f;fill-opacity:1;fill-rule:nonzero;stroke:none" /></g><g
       transform="translate(567.64719,457.77715)"
       id="g6001"><path
         d="m 222.75,699.21875 c -3.1375,0 -5.96875,1.48125 -8.03125,3.84375 -2.05,2.375 -3.3125,5.65625 -3.3125,9.28125 0,2.1 0.99375,3.9125 2.46875,4.875 0.125,0.0875 0.2375,0.1875 0.375,0.25 0.6125,0.325 1.30625,0.5 2.03125,0.5 l 19.21875,0 2.6875,0 14.84375,0 14.09375,0 3.28125,0 23.28125,0 42.375,0 c 0.725,0 1.41875,-0.175 2.03125,-0.5 0.1375,-0.0625 0.28125,-0.1625 0.40625,-0.25 0.3875,-0.25 0.71875,-0.54375 1.03125,-0.90625 0.875,-1.0125 1.4375,-2.41875 1.4375,-3.96875 0,-7.2375 -5.0875,-13.125 -11.375,-13.125 l -19.5,0 -7.875,0 -4.78125,0 -28.84375,0 -3.71875,0 -16.78125,0 -8.96875,0 -8.0625,0 -8.3125,0 z"
         transform="matrix(0.8,0,0,-0.8,-187.81763,572.3766)"
         id="path6003"
         style="fill:#4d84ff;fill-opacity:1;fill-rule:nonzero;stroke:none" /></g><g
       transform="translate(566.49719,380.53714)"
       id="g6005"><path
         d="m 228.125,812.03125 2.75,18.75 1.5,0 26.0625,0 12.6875,0 9.96875,0 40.375,0 1.03125,-6.9375 1.71875,-11.8125 -21.125,0 -28.21875,0 -15,0 0,0.25 c -0.075,-0.0875 -0.1625,-0.175 -0.25,-0.25 l -26.28125,0 -5.21875,0 z"
         transform="matrix(0.8,0,0,-0.8,-186.66763,649.6166)"
         id="path6007"
         style="fill:#ffffff;fill-opacity:1;fill-rule:nonzero;stroke:none" /></g><g
       transform="translate(563.02719,412.03714)"
       id="g6021"><path
         d="m 286.5,753.90625 -16.375,0 -5.75,0 -13.75,0 -14.3125,0 -16.71875,0 0.25,1.5625 2.5,17.1875 6.65625,0 6.375,0 27.34375,0 c 0.0625,0.075 0.1375,0.14375 0.1875,0.21875 l 0.0312,-0.21875 19.8125,0 1.46875,0 5.65625,0 17.15625,0 22.96875,0 0.9375,-6.4375 1.8125,-12.3125 -16.6875,0 -23.375,0 -2.5625,0 c -2.40717,0.11961 -0.76282,0.20695 -3.625,0 z"
         transform="matrix(0.8,0,0,-0.8,-183.19763,618.1166)"
         id="path6023"
         style="fill:#ffffff;fill-opacity:1;fill-rule:nonzero;stroke:none" /></g><g
       transform="translate(540.15719,489.71715)"
       id="g6029"><path
         d="M 0,0 0,-0.62 C -0.01,-0.41 -0.02,-0.21 -0.02,0 L 0,0 z"
         id="path6031"
         style="fill:#ffffff;fill-opacity:1;fill-rule:nonzero;stroke:none" /></g></g><g
     transform="matrix(1.25,0,0,-1.25,-524.75409,636.11092)"
     id="g238" /><g
     transform="matrix(1.25,0,0,-1.25,-502.6758,559.55079)"
     id="g5475" /><g
     transform="matrix(1.25,0,0,-1.25,-183.79455,348.44417)"
     id="g5673" /><g
     transform="matrix(1.25,0,0,-1.25,-186.26955,350.94417)"
     id="g5681" /><g
     transform="matrix(1.25,0,0,-1.25,-186.65705,353.56917)"
     id="g5685" /><g
     transform="matrix(1.25,0,0,-1.25,-187.30705,358.01917)"
     id="g5693" /><g
     transform="matrix(1.25,0,0,-1.25,-191.99455,390.00667)"
     id="g5697" /><g
     transform="matrix(1.25,0,0,-1.25,-193.80705,402.34417)"
     id="g5701" /><g
     transform="matrix(1.25,0,0,-1.25,-194.75705,408.75667)"
     id="g5705" /><g
     transform="matrix(1.25,0,0,-1.25,-197.09455,424.66917)"
     id="g5709" /><g
     transform="matrix(1.25,0,0,-1.25,-199.01955,437.83167)"
     id="g5713" /><g
     transform="matrix(1.25,0,0,-1.25,-199.66955,442.29417)"
     id="g5717" /><g
     transform="matrix(1.25,0,0,-1.25,-200.53205,448.13167)"
     id="g5721" /><g
     transform="matrix(1.25,0,0,-1.25,-202.26955,459.96917)"
     id="g5725" /><g
     transform="matrix(1.25,0,0,-1.25,-203.28205,466.88167)"
     id="g5733" /><g
     transform="matrix(1.25,0,0,-1.25,-208.69455,390.00667)"
     id="g5741" /><g
     transform="matrix(1.25,0,0,-1.25,-217.71955,408.75667)"
     id="g5761" /><g
     transform="matrix(1.25,0,0,-1.25,-221.65705,448.13167)"
     id="g5769" /><g
     transform="matrix(1.25,0,0,-1.25,-227.30705,335.33167)"
     id="g5777" /><g
     transform="matrix(1.25,0,0,-1.25,-230.55705,351.58167)"
     id="g5781" /><g
     transform="matrix(1.25,0,0,-1.25,-231.05705,354.08167)"
     id="g5785" /><g
     transform="matrix(1.25,0,0,-1.25,-234.64455,390.00667)"
     id="g5797" /><g
     transform="matrix(1.25,0,0,-1.25,-234.64455,390.00667)"
     id="g5801" /><g
     transform="matrix(1.25,0,0,-1.25,-234.64455,390.00667)"
     id="g5805" /><g
     transform="matrix(1.25,0,0,-1.25,-237.45705,386.11917)"
     id="g5809" /><g
     transform="matrix(1.25,0,0,-1.25,-238.24455,390.00667)"
     id="g5813" /><g
     transform="matrix(1.25,0,0,-1.25,-240.54455,408.75667)"
     id="g5817" /><g
     transform="matrix(1.25,0,0,-1.25,-241.71955,407.40667)"
     id="g5825" /><g
     transform="matrix(1.25,0,0,-1.25,-241.99455,408.75667)"
     id="g5829" /><g
     transform="matrix(1.25,0,0,-1.25,-243.65705,466.88167)"
     id="g5841" /><g
     transform="matrix(1.25,0,0,-1.25,-245.78205,427.71917)"
     id="g5845" /><g
     transform="matrix(1.25,0,0,-1.25,-249.86955,448.13167)"
     id="g5849" /><g
     transform="matrix(1.25,0,0,-1.25,-252.24455,460.01917)"
     id="g5853" /><g
     transform="matrix(1.25,0,0,-1.25,-254.35705,354.08167)"
     id="g5869" /><g
     transform="matrix(1.25,0,0,-1.25,-254.63205,390.00667)"
     id="g5873" /><g
     transform="matrix(1.25,0,0,-1.25,-257.01955,346.24417)"
     id="g5877" /><g
     transform="matrix(1.25,0,0,-1.25,-256.16955,335.33167)"
     id="g5881" /><g
     transform="matrix(1.25,0,0,-1.25,-257.01955,346.24417)"
     id="g5885" /><g
     transform="matrix(1.25,0,0,-1.25,-257.43205,351.58167)"
     id="g5889" /><g
     transform="matrix(1.25,0,0,-1.25,-257.61955,354.08167)"
     id="g5893" /><g
     transform="matrix(1.25,0,0,-1.25,-259.73205,381.48167)"
     id="g5897" /><g
     transform="matrix(1.25,0,0,-1.25,-260.39455,390.00667)"
     id="g5905" /><g
     transform="matrix(1.25,0,0,-1.25,-261.83205,408.75667)"
     id="g5913" /><g
     transform="matrix(1.25,0,0,-1.25,-262.03205,408.75667)"
     id="g5917" /><g
     transform="matrix(1.25,0,0,-1.25,-262.03205,408.75667)"
     id="g5921" /><g
     transform="matrix(1.25,0,0,-1.25,-264.86955,448.13167)"
     id="g5929" /><g
     transform="matrix(1.25,0,0,-1.25,-265.14455,448.13167)"
     id="g5933" /><g
     transform="matrix(1.25,0,0,-1.25,-265.14455,448.13167)"
     id="g5937" /><g
     transform="matrix(1.25,0,0,-1.25,-271.73205,354.08167)"
     id="g5945" /><g
     transform="matrix(1.25,0,0,-1.25,-272.54455,351.58167)"
     id="g5949" /><g
     transform="matrix(1.25,0,0,-1.25,-274.13205,390.00667)"
     id="g5953" /><g
     transform="matrix(1.25,0,0,-1.25,-285.61955,335.33167)"
     id="g5969" /><g
     transform="matrix(1.25,0,0,-1.25,-286.45705,351.58167)"
     id="g5973" /><g
     transform="matrix(1.25,0,0,-1.25,-286.58205,354.08167)"
     id="g5977" /><g
     transform="matrix(1.25,0,0,-1.25,-288.43205,390.00667)"
     id="g5985" /><g
     transform="matrix(1.25,0,0,-1.25,-289.26955,354.08167)"
     id="g5989" /><g
     transform="matrix(1.25,0,0,-1.25,-289.39455,408.75667)"
     id="g5993" /></svg>