<?xml version="1.0" encoding="UTF-8" standalone="no"?>
<!-- Created with Inkscape (http://www.inkscape.org/) -->

<svg
   xmlns:dc="http://purl.org/dc/elements/1.1/"
   xmlns:cc="http://creativecommons.org/ns#"
   xmlns:rdf="http://www.w3.org/1999/02/22-rdf-syntax-ns#"
   xmlns:svg="http://www.w3.org/2000/svg"
   xmlns="http://www.w3.org/2000/svg"
   version="1.1"
   width="526.83051"
   height="376.7652"
   id="svg4621">
  <defs
     id="defs4623" />
  <metadata
     id="metadata4626">
    <rdf:RDF>
      <cc:Work
         rdf:about="">
        <dc:format>image/svg+xml</dc:format>
        <dc:type
           rdf:resource="http://purl.org/dc/dcmitype/StillImage" />
        <dc:title></dc:title>
      </cc:Work>
    </rdf:RDF>
  </metadata>
  <g
     transform="translate(-113.37165,-239.70531)"
     id="layer1">
    <g
       transform="matrix(1.25,0,0,-1.25,225.03415,494.64696)"
       id="g3248">
      <path
         d="m 0,0 c 0,-24.668 -19.997,-44.665 -44.665,-44.665 -24.668,0 -44.665,19.997 -44.665,44.665 0,24.668 19.997,44.665 44.665,44.665 C -19.997,44.665 0,24.668 0,0"
         id="path3250"
         style="fill:#efef9e;fill-opacity:1;fill-rule:nonzero;stroke:none" />
    </g>
    <g
       transform="matrix(1.25,0,0,-1.25,222.1169,476.84083)"
       id="g3252">
      <path
         d="m 0,0 c -3.337,-26.009 -19.771,-47.919 -42.477,-58.906 0.049,0 0.097,-0.004 0.146,-0.004 24.668,0 44.665,19.997 44.665,44.665 C 2.334,-9.262 1.506,-4.475 0,0"
         id="path3254"
         style="fill:#e0db99;fill-opacity:1;fill-rule:nonzero;stroke:none" />
    </g>
    <g
       transform="matrix(1.25,0,0,-1.25,249.40427,434.25158)"
       id="g3256">
      <path
         d="m 0,0 c 0,-24.668 -19.997,-44.665 -44.665,-44.665 -24.668,0 -44.665,19.997 -44.665,44.665 0,24.668 19.997,44.665 44.665,44.665 C -19.997,44.665 0,24.668 0,0"
         id="path3258"
         style="fill:#efef9e;fill-opacity:1;fill-rule:nonzero;stroke:none" />
    </g>
    <g
       transform="matrix(1.25,0,0,-1.25,246.4869,416.44546)"
       id="g3260">
      <path
         d="m 0,0 c -3.337,-26.009 -19.771,-47.919 -42.477,-58.906 0.049,0 0.097,-0.004 0.146,-0.004 24.668,0 44.665,19.997 44.665,44.665 C 2.334,-9.262 1.506,-4.475 0,0"
         id="path3262"
         style="fill:#e0db99;fill-opacity:1;fill-rule:nonzero;stroke:none" />
    </g>
    <a
       transform="matrix(1.25,0,0,-1.25,-498.6191,652.89921)"
       id="a4416">
      <path
         d="m 634.0202,129.9924 c 0,-24.668 -19.997,-44.665 -44.665,-44.665 -24.668,0 -44.665,19.997 -44.665,44.665 0,24.668 19.997,44.665 44.665,44.665 24.668,0 44.665,-19.997 44.665,-44.665"
         id="path3266"
         style="fill:#efef9e;fill-opacity:1;fill-rule:nonzero;stroke:none" />
    </a>
    <g
       transform="matrix(1.25,0,0,-1.25,290.98877,472.60259)"
       id="g3268">
      <path
         d="m 0,0 c -3.337,-26.009 -19.771,-47.919 -42.477,-58.906 0.049,0 0.097,-0.004 0.146,-0.004 24.668,0 44.665,19.997 44.665,44.665 C 2.334,-9.262 1.506,-4.475 0,0"
         id="path3270"
         style="fill:#e0db99;fill-opacity:1;fill-rule:nonzero;stroke:none" />
    </g>
    <g
       transform="matrix(1.25,0,0,-1.25,190.63927,445.46558)"
       id="g3272">
      <path
         d="m 0,0 c 1.74,-8.741 -3.936,-17.237 -12.677,-18.977 -8.741,-1.739 -17.238,3.937 -18.977,12.678 -1.74,8.741 3.936,17.237 12.677,18.976 C -10.236,14.417 -1.74,8.741 0,0"
         id="path3274"
         style="fill:#000000;fill-opacity:1;fill-rule:nonzero;stroke:none" />
    </g>
    <path
       d="m 242.68715,438.95446 c 2.175,10.92625 -4.92,21.54625 -15.84625,23.72125 -10.92625,2.17375 -21.5475,-4.92125 -23.72125,-15.8475 -2.175,-10.92625 4.92,-21.54625 15.84625,-23.72 10.92625,-2.175 21.54625,4.92 23.72125,15.84625"
       id="path3278"
       style="fill:#000000;fill-opacity:1;fill-rule:nonzero;stroke:none" />
    <g
       transform="matrix(1.25,0,0,-1.25,182.87315,439.62596)"
       id="g3280">
      <path
         d="m 0,0 c 0.844,-2.237 -0.285,-4.734 -2.522,-5.578 -2.236,-0.843 -4.734,0.286 -5.577,2.522 -0.844,2.237 0.285,4.734 2.521,5.578 C -3.341,3.366 -0.844,2.237 0,0"
         id="path3282"
         style="fill:#fcfcfc;fill-opacity:1;fill-rule:nonzero;stroke:none" />
    </g>
    <g
       transform="matrix(1.25,0,0,-1.25,234.92102,433.11496)"
       id="g3284">
      <path
         d="m 0,0 c 0.844,-2.237 -0.285,-4.734 -2.522,-5.578 -2.237,-0.843 -4.734,0.286 -5.578,2.522 -0.843,2.237 0.286,4.734 2.522,5.578 C -3.341,3.366 -0.844,2.237 0,0"
         id="path3286"
         style="fill:#fcfcfc;fill-opacity:1;fill-rule:nonzero;stroke:none" />
    </g>
    <g
       transform="matrix(1.25,0,0,-1.25,222.50152,494.71984)"
       id="g3288">
      <path
         d="M 0,0 -1.133,3.441 C -2.122,6.445 -2.344,7.116 -2.344,7.116 -4.631,14.063 -12.6,17.681 -20.142,15.197 -27.684,12.713 -31.943,5.069 -29.655,-1.878 l 1.21,-3.675 1.133,-3.441 c 0.989,-3.004 4.256,-4.652 7.26,-3.663 L -3.663,-7.26 C -0.659,-6.271 0.989,-3.004 0,0"
         id="path3290"
         style="fill:#ef1151;fill-opacity:1;fill-rule:nonzero;stroke:none" />
    </g>
    <g
       transform="matrix(1.25,0,0,-1.25,415.37439,243.30056)"
       id="g3552">
      <path
         d="m 0,0 c -54.976,-10.842 -96.983,-50.327 -113.671,-99.882 l 144.733,-48.861 -114.393,-99.328 c 34.311,-38.43 87.435,-58.281 141.642,-47.591 81.644,16.103 134.777,95.342 118.675,176.987 C 160.884,-37.031 81.645,16.102 0,0"
         id="path3554"
         style="fill:#f2dc16;fill-opacity:1;fill-rule:nonzero;stroke:none" />
      <path
         d="m 176.65473,-117.23976 c 2.86477,-51.78144 -22.86155,-105.86 -72.73811,-140.95662 -36.762365,-25.86727 -79.863751,-36.63268 -120.325162,-33.27413 44.250593,-13.98235 94.339736,-7.41297 134.625652,22.13999 49.08334,36.00854 70.00497,96.1338 58.43762,152.09076 z"
         id="path3554-9"
         style="fill:#f2be16;fill-opacity:1;fill-rule:nonzero;stroke:none" />
    </g>
    <g
       transform="matrix(1.25,0,0,-1.25,423.11317,317.40088)"
       id="g3556">
      <path
         d="m 0,0 c 3.006,-15.104 -6.802,-29.786 -21.906,-32.791 -15.105,-3.006 -29.786,6.801 -32.792,21.906 -3.006,15.104 6.802,29.785 21.907,32.791 C -17.687,24.912 -3.006,15.104 0,0"
         id="path3558"
         style="fill:#000000;fill-opacity:1;fill-rule:nonzero;stroke:none" />
    </g>
    <g
       transform="matrix(1.1490508,-0.49212008,-0.49212008,-1.1490508,374.56259,333.93191)"
       id="g3560">
      <path
         d="M 0,0 C -2.139,4.73 -0.694,10.157 3.17,13.268 0.338,13.556 -2.596,12.617 -4.766,10.447 -8.597,6.615 -8.597,0.403 -4.765,-3.428 -1.925,-6.268 2.221,-6.997 5.737,-5.627 3.28,-4.565 1.19,-2.632 0,0"
         id="path3562"
         style="fill:#fcfcfc;fill-opacity:1;fill-rule:nonzero;stroke:none" />
    </g>
  </g>
</svg>
