<?xml version="1.0" encoding="UTF-8" standalone="no"?>
<!-- Created with Inkscape (http://www.inkscape.org/) -->

<svg
   xmlns:dc="http://purl.org/dc/elements/1.1/"
   xmlns:cc="http://creativecommons.org/ns#"
   xmlns:rdf="http://www.w3.org/1999/02/22-rdf-syntax-ns#"
   xmlns:svg="http://www.w3.org/2000/svg"
   xmlns="http://www.w3.org/2000/svg"
   xmlns:sodipodi="http://sodipodi.sourceforge.net/DTD/sodipodi-0.dtd"
   xmlns:inkscape="http://www.inkscape.org/namespaces/inkscape"
   width="526.83051"
   height="376.7652"
   id="svg4621"
   version="1.1"
   inkscape:version="0.48.4 r9939"
   sodipodi:docname="error.svg">
  <defs
     id="defs4623" />
  <sodipodi:namedview
     id="base"
     pagecolor="#ffffff"
     bordercolor="#666666"
     borderopacity="1.0"
     inkscape:pageopacity="0.0"
     inkscape:pageshadow="2"
     inkscape:zoom="0.98994949"
     inkscape:cx="268.58853"
     inkscape:cy="339.35405"
     inkscape:document-units="px"
     inkscape:current-layer="layer1"
     showgrid="false"
     inkscape:window-width="1855"
     inkscape:window-height="1056"
     inkscape:window-x="65"
     inkscape:window-y="24"
     inkscape:window-maximized="1"
     fit-margin-top="0"
     fit-margin-left="0"
     fit-margin-right="0"
     fit-margin-bottom="0" />
  <metadata
     id="metadata4626">
    <rdf:RDF>
      <cc:Work
         rdf:about="">
        <dc:format>image/svg+xml</dc:format>
        <dc:type
           rdf:resource="http://purl.org/dc/dcmitype/StillImage" />
        <dc:title></dc:title>
      </cc:Work>
    </rdf:RDF>
  </metadata>
  <g
     inkscape:label="Layer 1"
     inkscape:groupmode="layer"
     id="layer1"
     transform="translate(-113.37165,-239.70531)">
    <g
       id="g3248"
       transform="matrix(1.25,0,0,-1.25,225.03415,494.64696)">
      <path
         d="m 0,0 c 0,-24.668 -19.997,-44.665 -44.665,-44.665 -24.668,0 -44.665,19.997 -44.665,44.665 0,24.668 19.997,44.665 44.665,44.665 C -19.997,44.665 0,24.668 0,0"
         style="fill:#efef9e;fill-opacity:1;fill-rule:nonzero;stroke:none"
         id="path3250"
         inkscape:connector-curvature="0" />
    </g>
    <g
       id="g3252"
       transform="matrix(1.25,0,0,-1.25,222.1169,476.84083)">
      <path
         d="m 0,0 c -3.337,-26.009 -19.771,-47.919 -42.477,-58.906 0.049,0 0.097,-0.004 0.146,-0.004 24.668,0 44.665,19.997 44.665,44.665 C 2.334,-9.262 1.506,-4.475 0,0"
         style="fill:#e0db99;fill-opacity:1;fill-rule:nonzero;stroke:none"
         id="path3254"
         inkscape:connector-curvature="0" />
    </g>
    <g
       id="g3256"
       transform="matrix(1.25,0,0,-1.25,249.40427,434.25158)">
      <path
         d="m 0,0 c 0,-24.668 -19.997,-44.665 -44.665,-44.665 -24.668,0 -44.665,19.997 -44.665,44.665 0,24.668 19.997,44.665 44.665,44.665 C -19.997,44.665 0,24.668 0,0"
         style="fill:#efef9e;fill-opacity:1;fill-rule:nonzero;stroke:none"
         id="path3258"
         inkscape:connector-curvature="0" />
    </g>
    <g
       id="g3260"
       transform="matrix(1.25,0,0,-1.25,246.4869,416.44546)">
      <path
         d="m 0,0 c -3.337,-26.009 -19.771,-47.919 -42.477,-58.906 0.049,0 0.097,-0.004 0.146,-0.004 24.668,0 44.665,19.997 44.665,44.665 C 2.334,-9.262 1.506,-4.475 0,0"
         style="fill:#e0db99;fill-opacity:1;fill-rule:nonzero;stroke:none"
         id="path3262"
         inkscape:connector-curvature="0" />
    </g>
    <a
       transform="matrix(1.25,0,0,-1.25,-498.6191,652.89921)"
       id="a4416">
      <path
         d="m 634.0202,129.9924 c 0,-24.668 -19.997,-44.665 -44.665,-44.665 -24.668,0 -44.665,19.997 -44.665,44.665 0,24.668 19.997,44.665 44.665,44.665 24.668,0 44.665,-19.997 44.665,-44.665"
         style="fill:#efef9e;fill-opacity:1;fill-rule:nonzero;stroke:none"
         id="path3266"
         inkscape:connector-curvature="0" />
    </a>
    <g
       id="g3268"
       transform="matrix(1.25,0,0,-1.25,290.98877,472.60259)">
      <path
         d="m 0,0 c -3.337,-26.009 -19.771,-47.919 -42.477,-58.906 0.049,0 0.097,-0.004 0.146,-0.004 24.668,0 44.665,19.997 44.665,44.665 C 2.334,-9.262 1.506,-4.475 0,0"
         style="fill:#e0db99;fill-opacity:1;fill-rule:nonzero;stroke:none"
         id="path3270"
         inkscape:connector-curvature="0" />
    </g>
    <g
       id="g3272"
       transform="matrix(1.25,0,0,-1.25,190.63927,445.46558)">
      <path
         d="m 0,0 c 1.74,-8.741 -3.936,-17.237 -12.677,-18.977 -8.741,-1.739 -17.238,3.937 -18.977,12.678 -1.74,8.741 3.936,17.237 12.677,18.976 C -10.236,14.417 -1.74,8.741 0,0"
         style="fill:#000000;fill-opacity:1;fill-rule:nonzero;stroke:none"
         id="path3274"
         inkscape:connector-curvature="0" />
    </g>
    <path
       inkscape:connector-curvature="0"
       id="path3278"
       style="fill:#000000;fill-opacity:1;fill-rule:nonzero;stroke:none"
       d="m 242.68715,438.95446 c 2.175,10.92625 -4.92,21.54625 -15.84625,23.72125 -10.92625,2.17375 -21.5475,-4.92125 -23.72125,-15.8475 -2.175,-10.92625 4.92,-21.54625 15.84625,-23.72 10.92625,-2.175 21.54625,4.92 23.72125,15.84625" />
    <g
       id="g3280"
       transform="matrix(1.25,0,0,-1.25,182.87315,439.62596)">
      <path
         d="m 0,0 c 0.844,-2.237 -0.285,-4.734 -2.522,-5.578 -2.236,-0.843 -4.734,0.286 -5.577,2.522 -0.844,2.237 0.285,4.734 2.521,5.578 C -3.341,3.366 -0.844,2.237 0,0"
         style="fill:#fcfcfc;fill-opacity:1;fill-rule:nonzero;stroke:none"
         id="path3282"
         inkscape:connector-curvature="0" />
    </g>
    <g
       id="g3284"
       transform="matrix(1.25,0,0,-1.25,234.92102,433.11496)">
      <path
         d="m 0,0 c 0.844,-2.237 -0.285,-4.734 -2.522,-5.578 -2.237,-0.843 -4.734,0.286 -5.578,2.522 -0.843,2.237 0.286,4.734 2.522,5.578 C -3.341,3.366 -0.844,2.237 0,0"
         style="fill:#fcfcfc;fill-opacity:1;fill-rule:nonzero;stroke:none"
         id="path3286"
         inkscape:connector-curvature="0" />
    </g>
    <g
       id="g3288"
       transform="matrix(1.25,0,0,-1.25,222.50152,494.71984)">
      <path
         d="M 0,0 -1.133,3.441 C -2.122,6.445 -2.344,7.116 -2.344,7.116 -4.631,14.063 -12.6,17.681 -20.142,15.197 -27.684,12.713 -31.943,5.069 -29.655,-1.878 l 1.21,-3.675 1.133,-3.441 c 0.989,-3.004 4.256,-4.652 7.26,-3.663 L -3.663,-7.26 C -0.659,-6.271 0.989,-3.004 0,0"
         style="fill:#ef1151;fill-opacity:1;fill-rule:nonzero;stroke:none"
         id="path3290"
         inkscape:connector-curvature="0" />
    </g>
    <g
       id="g3552"
       transform="matrix(1.25,0,0,-1.25,415.37439,243.30056)">
      <path
         d="m 0,0 c -54.976,-10.842 -96.983,-50.327 -113.671,-99.882 l 144.733,-48.861 -114.393,-99.328 c 34.311,-38.43 87.435,-58.281 141.642,-47.591 81.644,16.103 134.777,95.342 118.675,176.987 C 160.884,-37.031 81.645,16.102 0,0"
         style="fill:#f2dc16;fill-opacity:1;fill-rule:nonzero;stroke:none"
         id="path3554"
         inkscape:connector-curvature="0" />
    </g>
    <g
       id="g3556"
       transform="matrix(1.25,0,0,-1.25,423.11317,317.40088)">
      <path
         d="m 0,0 c 3.006,-15.104 -6.802,-29.786 -21.906,-32.791 -15.105,-3.006 -29.786,6.801 -32.792,21.906 -3.006,15.104 6.802,29.785 21.907,32.791 C -17.687,24.912 -3.006,15.104 0,0"
         style="fill:#000000;fill-opacity:1;fill-rule:nonzero;stroke:none"
         id="path3558"
         inkscape:connector-curvature="0" />
    </g>
    <g
       id="g3560"
       transform="matrix(1.25,0,0,-1.25,370.77882,329.76836)">
      <path
         d="M 0,0 C -2.139,4.73 -0.694,10.157 3.17,13.268 0.338,13.556 -2.596,12.617 -4.766,10.447 -8.597,6.615 -8.597,0.403 -4.765,-3.428 -1.925,-6.268 2.221,-6.997 5.737,-5.627 3.28,-4.565 1.19,-2.632 0,0"
         style="fill:#fcfcfc;fill-opacity:1;fill-rule:nonzero;stroke:none"
         id="path3562"
         inkscape:connector-curvature="0" />
    </g>
  </g>
</svg>
