<?xml version="1.0" encoding="UTF-8" standalone="no"?>
<!-- Created with Inkscape (http://www.inkscape.org/) -->

<svg
   xmlns:dc="http://purl.org/dc/elements/1.1/"
   xmlns:cc="http://creativecommons.org/ns#"
   xmlns:rdf="http://www.w3.org/1999/02/22-rdf-syntax-ns#"
   xmlns:svg="http://www.w3.org/2000/svg"
   xmlns="http://www.w3.org/2000/svg"
   xmlns:sodipodi="http://sodipodi.sourceforge.net/DTD/sodipodi-0.dtd"
   xmlns:inkscape="http://www.inkscape.org/namespaces/inkscape"
   id="svg2"
   version="1.1"
   inkscape:version="0.48.4 r9939"
   width="640"
   height="640"
   xml:space="preserve"
   sodipodi:docname="Prova.ai"><metadata
     id="metadata8"><rdf:RDF><cc:Work
         rdf:about=""><dc:format>image/svg+xml</dc:format><dc:type
           rdf:resource="http://purl.org/dc/dcmitype/StillImage" /><dc:title></dc:title></cc:Work></rdf:RDF></metadata><defs
     id="defs6"><clipPath
       clipPathUnits="userSpaceOnUse"
       id="clipPath16"><path
         d="M 0,512 512,512 512,0 0,0 0,512 z"
         id="path18" /></clipPath></defs><sodipodi:namedview
     pagecolor="#ffffff"
     bordercolor="#666666"
     borderopacity="1"
     objecttolerance="10"
     gridtolerance="10"
     guidetolerance="10"
     inkscape:pageopacity="0"
     inkscape:pageshadow="2"
     inkscape:window-width="1855"
     inkscape:window-height="1056"
     id="namedview4"
     showgrid="false"
     inkscape:zoom="0.36875"
     inkscape:cx="320"
     inkscape:cy="320"
     inkscape:window-x="65"
     inkscape:window-y="24"
     inkscape:window-maximized="1"
     inkscape:current-layer="g10" /><g
     id="g10"
     inkscape:groupmode="layer"
     inkscape:label="Prova"
     transform="matrix(1.25,0,0,-1.25,0,640)"><g
       id="g12"><g
         id="g14"
         clip-path="url(#clipPath16)"><g
           id="g20"
           transform="translate(185.9666,303.3995)"><path
             d="m 0,0 c 0,-47.455 -38.47,-85.925 -85.925,-85.925 -47.455,0 -85.924,38.47 -85.924,85.925 0,47.455 38.469,85.925 85.924,85.925 C -38.47,85.925 0,47.455 0,0"
             style="fill:#eeeda2;fill-opacity:1;fill-rule:nonzero;stroke:none"
             id="path22" /></g><g
           id="g24"
           transform="translate(367.7921,356.9873)"><path
             d="m 0,0 c 0,-75.588 -61.276,-136.864 -136.864,-136.864 -75.588,0 -136.864,61.276 -136.864,136.864 0,75.588 61.276,136.864 136.864,136.864 C -61.276,136.864 0,75.588 0,0"
             style="fill:#eeeda2;fill-opacity:1;fill-rule:nonzero;stroke:none"
             id="path26" /></g><g
           id="g28"
           transform="translate(360.6407,400.637)"><path
             d="m 0,0 c -10.225,-79.698 -60.582,-146.835 -130.158,-180.503 0.149,0 0.296,-0.011 0.445,-0.011 75.588,0 136.864,61.276 136.864,136.864 C 7.151,-28.381 4.613,-13.714 0,0"
             style="fill:#e1dc9c;fill-opacity:1;fill-rule:nonzero;stroke:none"
             id="path30" /></g><g
           id="g32"
           transform="translate(465.3794,338.7366)"><path
             d="m 0,0 c 0,-56.497 -45.8,-102.296 -102.296,-102.296 -56.497,0 -102.297,45.799 -102.297,102.296 0,56.497 45.8,102.296 102.297,102.296 C -45.8,102.296 0,56.497 0,0"
             style="fill:#eeeda2;fill-opacity:1;fill-rule:nonzero;stroke:none"
             id="path34" /></g><g
           id="g36"
           transform="translate(460.0342,371.3617)"><path
             d="m 0,0 c -7.642,-59.568 -45.28,-109.749 -97.284,-134.913 0.111,0 0.221,-0.008 0.333,-0.008 56.497,0 102.296,45.799 102.296,102.296 C 5.345,-21.213 3.448,-10.25 0,0"
             style="fill:#e1dc9c;fill-opacity:1;fill-rule:nonzero;stroke:none"
             id="path38" /></g><g
           id="g40"
           transform="translate(298.4496,164.8476)"><path
             d="m 0,0 c 0,-80.818 -65.516,-146.333 -146.333,-146.333 -80.818,0 -146.334,65.515 -146.334,146.333 0,80.818 65.516,146.333 146.334,146.333 C -65.516,146.333 0,80.818 0,0"
             style="fill:#eeeda2;fill-opacity:1;fill-rule:nonzero;stroke:none"
             id="path42" /></g><g
           id="g44"
           transform="translate(290.8034,211.5173)"><path
             d="m 0,0 c -10.932,-85.212 -64.773,-156.994 -139.164,-192.991 0.16,-10e-4 0.317,-0.012 0.477,-0.012 80.818,0 146.333,65.516 146.333,146.333 C 7.646,-30.345 4.933,-14.662 0,0"
             style="fill:#e1dc9c;fill-opacity:1;fill-rule:nonzero;stroke:none"
             id="path46" /></g><g
           id="g48"
           transform="translate(506.9951,198.6471)"><path
             d="m 0,0 c 0,-91.97 -74.556,-166.526 -166.526,-166.526 -91.97,0 -166.526,74.556 -166.526,166.526 0,91.97 74.556,166.526 166.526,166.526 C -74.556,166.526 0,91.97 0,0"
             style="fill:#eeeda2;fill-opacity:1;fill-rule:nonzero;stroke:none"
             id="path50" /></g><g
           id="g52"
           transform="translate(498.2937,251.7569)"><path
             d="m 0,0 c -12.441,-96.97 -73.711,-178.658 -158.367,-219.622 0.182,-10e-4 0.36,-0.014 0.542,-0.014 91.97,0 166.526,74.556 166.526,166.526 C 8.701,-34.532 5.613,-16.686 0,0"
             style="fill:#e1dc9c;fill-opacity:1;fill-rule:nonzero;stroke:none"
             id="path54" /></g><g
           id="g56"
           transform="translate(238.8929,317.6713)"><path
             d="m 0,0 c 6.055,-30.428 -13.702,-60.003 -44.13,-66.059 -30.428,-6.055 -60.004,13.703 -66.059,44.131 -6.055,30.428 13.703,60.003 44.13,66.058 C -35.631,50.186 -6.055,30.428 0,0"
             style="fill:#1d1d1d;fill-opacity:1;fill-rule:nonzero;stroke:none"
             id="path58" /></g><g
           id="g60"
           transform="translate(383.8372,335.8036)"><path
             d="m 0,0 c 6.055,-30.428 -13.703,-60.003 -44.13,-66.059 -30.428,-6.055 -60.004,13.703 -66.059,44.131 -6.055,30.428 13.703,60.003 44.13,66.058 C -35.631,50.186 -6.055,30.428 0,0"
             style="fill:#1d1d1d;fill-opacity:1;fill-rule:nonzero;stroke:none"
             id="path62" /></g><g
           id="g64"
           transform="translate(217.2655,333.9335)"><path
             d="m 0,0 c 2.937,-7.786 -0.993,-16.479 -8.779,-19.416 -7.786,-2.937 -16.478,0.993 -19.416,8.779 -2.937,7.786 0.993,16.478 8.779,19.416 C -11.63,11.716 -2.937,7.786 0,0"
             style="fill:#fdfdfd;fill-opacity:1;fill-rule:nonzero;stroke:none"
             id="path66" /></g><g
           id="g68"
           transform="translate(362.2098,352.0657)"><path
             d="m 0,0 c 2.937,-7.786 -0.993,-16.478 -8.779,-19.416 -7.786,-2.937 -16.478,0.993 -19.416,8.779 -2.937,7.786 0.993,16.478 8.779,19.416 C -11.63,11.716 -2.937,7.786 0,0"
             style="fill:#fdfdfd;fill-opacity:1;fill-rule:nonzero;stroke:none"
             id="path70" /></g><g
           id="g72"
           transform="translate(219.5005,193.3882)"><path
             d="m 0,0 2.419,-12.377 c 2.113,-10.804 2.585,-13.22 2.585,-13.22 4.884,-24.985 30.835,-40.941 57.962,-35.638 27.128,5.303 45.159,29.857 40.275,54.842 l -2.584,13.22 -2.42,12.377 C 96.125,30.008 85.557,37.12 74.753,35.008 L 15.804,23.484 C 5,21.372 -2.112,10.804 0,0"
             style="fill:#e62c58;fill-opacity:1;fill-rule:nonzero;stroke:none"
             id="path74" /></g></g></g></g></svg>